<svg width="512" height="512" viewBox="0 0 512 512" fill="none" xmlns="http://www.w3.org/2000/svg">
  <defs>
    <linearGradient id="bg" x1="56" y1="40" x2="456" y2="472" gradientUnits="userSpaceOnUse">
      <stop stop-color="#0F172A"/>
      <stop offset="0.55" stop-color="#0F766E"/>
      <stop offset="1" stop-color="#14B8A6"/>
    </linearGradient>
    <radialGradient id="glow" cx="0" cy="0" r="1" gradientUnits="userSpaceOnUse" gradientTransform="translate(176 120) rotate(41.1859) scale(294.317)">
      <stop stop-color="white" stop-opacity="0.34"/>
      <stop offset="1" stop-color="white" stop-opacity="0"/>
    </radialGradient>
    <filter id="shadow" x="74" y="86" width="364" height="364" filterUnits="userSpaceOnUse" color-interpolation-filters="sRGB">
      <feFlood flood-opacity="0" result="BackgroundImageFix"/>
      <feColorMatrix in="SourceAlpha" type="matrix" values="0 0 0 0 0 0 0 0 0 0 0 0 0 0 0 0 0 0 127 0" result="hardAlpha"/>
      <feOffset dy="16"/>
      <feGaussianBlur stdDeviation="12"/>
      <feComposite in2="hardAlpha" operator="out"/>
      <feColorMatrix type="matrix" values="0 0 0 0 0.0313726 0 0 0 0 0.0784314 0 0 0 0 0.152941 0 0 0 0.3 0"/>
      <feBlend mode="normal" in2="BackgroundImageFix" result="effect1_dropShadow_0_1"/>
      <feBlend mode="normal" in="SourceGraphic" in2="effect1_dropShadow_0_1" result="shape"/>
    </filter>
  </defs>

  <rect x="24" y="24" width="464" height="464" rx="116" fill="url(#bg)"/>
  <rect x="24" y="24" width="464" height="464" rx="116" fill="url(#glow)"/>
  <path d="M105 112C105 82.1766 129.177 58 159 58H353C382.823 58 407 82.1766 407 112V154C407 183.823 382.823 208 353 208H277C254.909 208 237 225.909 237 248V248C237 270.091 254.909 288 277 288H349C381.033 288 407 313.967 407 346V400C407 429.823 382.823 454 353 454H159C129.177 454 105 429.823 105 400V112Z" fill="white" fill-opacity="0.06"/>

  <g filter="url(#shadow)">
    <path d="M342 138C314.326 121.947 282.193 112.858 247.937 112.858C144.692 112.858 111.5 191.452 111.5 255.741C111.5 319.968 144.692 399.142 247.937 399.142C282.296 399.142 314.484 390.016 342 373.9" stroke="white" stroke-width="56" stroke-linecap="round"/>
  </g>

  <circle cx="355" cy="256" r="34" fill="#F8FAFC"/>
  <circle cx="355" cy="256" r="20" fill="#FACC15"/>
  <path d="M145 86C145 78.268 151.268 72 159 72H282C289.732 72 296 78.268 296 86V86C296 93.732 289.732 100 282 100H159C151.268 100 145 93.732 145 86V86Z" fill="white" fill-opacity="0.18"/>
</svg>
